<svg
    xmlns="http://www.w3.org/2000/svg"
    width="24"
    height="24"
    fill="none"
    stroke="currentColor"
    strokeLinecap="round"
    strokeLinejoin="round"
    strokeWidth="2"
    className="lucide lucide-pencil-ruler"
    viewBox="0 0 24 24"
>
    <path d="M15 5l4 4M13 7L8.7 2.7a2.41 2.41 0 00-3.4 0L2.7 5.3a2.41 2.41 0 000 3.4L7 13M8 6l2-2M2 22l5.5-1.5L21.17 6.83a2.82 2.82 0 00-4-4L3.5 16.5zM18 16l2-2"></path>
    <path d="M17 11l4.3 4.3c.94.94.94 2.46 0 3.4l-2.6 2.6c-.94.94-2.46.94-3.4 0L11 17"></path>
</svg>