<svg id="Capa_1" data-name="Capa 1" xmlns="http://www.w3.org/2000/svg" viewBox="0 0 168.11 168.11">
    <defs>
        <style>.cls-1{fill:#ed2648;opacity:0.5;}.cls-2{fill:#fb8500;}.cls-2,.cls-3,.cls-4,.cls-5,.cls-6{opacity:0.75;}.cls-3{fill:#fb8500;}.cls-4{fill:#7e7d88;}.cls-5{fill:#219ebc;}.cls-6{fill:#023047;}</style>
    </defs><path class="cls-1" d="M82.51,45.27V98.18a24.66,24.66,0,0,1-24.66,24.66V69.93A24.67,24.67,0,0,1,82.51,45.27Z"/>
    <path class="cls-2" d="M82.51,98.18a24.66,24.66,0,0,1-24.66,24.66V73.53h.27a24.65,24.65,0,0,1,24.13,21A25.11,25.11,0,0,1,82.51,98.18Z"/>
    <path class="cls-3" d="M82.51,45.27V94.59h-.26a24.67,24.67,0,0,1-24.13-21,25.35,25.35,0,0,1-.27-3.61A24.67,24.67,0,0,1,82.51,45.27Z"/>
    <path class="cls-4" d="M105.8,84.06a24.64,24.64,0,0,1-20.2,38.78V45.27a24.65,24.65,0,0,1,20.2,38.79Z"/>
    <path class="cls-5" d="M110.26,98.18A24.67,24.67,0,0,1,85.6,122.84V73.53a24.68,24.68,0,0,1,24.66,24.65Z"/>
    <path class="cls-6" d="M110.26,69.93A24.68,24.68,0,0,1,85.6,94.59V45.27A24.67,24.67,0,0,1,110.26,69.93Z"/>
</svg>