<svg id="Capa_1" data-name="Capa 1"
     xmlns="http://www.w3.org/2000/svg"
     viewBox="0 0 513.19 168.11">
    <defs>
        <style>.cls-1{fill:#ed2648;opacity:0.5;}.cls-2{fill:#fb8500;}.cls-2,.cls-3,.cls-4,.cls-5,.cls-6{opacity:0.75;}.cls-3{fill:#fb8500;}.cls-4{fill:#7e7d88;}.cls-5{fill:#219ebc;}.cls-6{fill:#023047;}.cls-7{font-size:90.71px;fill:#023047;font-family:JetBrainsSans-ExtraBold, JetBrains Sans;font-weight:900;}</style>
    </defs>
    <path class="cls-1" d="M45.59,20.2V73.12A24.66,24.66,0,0,1,20.93,97.77V44.86A24.67,24.67,0,0,1,45.59,20.2Z"/>
    <path class="cls-2" d="M45.59,73.12A24.66,24.66,0,0,1,20.93,97.77V48.46h.27a24.65,24.65,0,0,1,24.13,21A25.14,25.14,0,0,1,45.59,73.12Z"/>
    <path class="cls-3" d="M45.59,20.2V69.52h-.26a24.66,24.66,0,0,1-24.13-21,25.24,25.24,0,0,1-.27-3.61A24.67,24.67,0,0,1,45.59,20.2Z"/>
    <path class="cls-4" d="M68.88,59a24.64,24.64,0,0,1-20.2,38.78V20.2A24.65,24.65,0,0,1,68.88,59Z"/>
    <path class="cls-5" d="M73.34,73.12A24.66,24.66,0,0,1,48.68,97.77V48.46A24.68,24.68,0,0,1,73.34,73.12Z"/>
    <path class="cls-6" d="M73.34,44.86A24.68,24.68,0,0,1,48.68,69.52V20.2A24.67,24.67,0,0,1,73.34,44.86Z"/>
    <text class="cls-7" transform="translate(80.04 97.88)">Abianic</text>
</svg>